<svg xmlns="http://www.w3.org/2000/svg" viewBox="0 0 200 100" width="400" height="200">
  <!-- Background Circle -->
  <circle cx="100" cy="50" r="48" fill="url(#gradient1)" />

  <!-- Gradient Definition -->
  <defs>
    <linearGradient id="gradient1" x1="0%" y1="0%" x2="100%" y2="100%">
      <stop offset="0%" style="stop-color:#ff7f50; stop-opacity:1" />
      <stop offset="50%" style="stop-color:#1e90ff; stop-opacity:1" />
      <stop offset="100%" style="stop-color:#32cd32; stop-opacity:1" />
    </linearGradient>
  </defs>

  <!-- Sleek Car Body -->
  <path d="M30 60 Q50 40 90 40 Q130 40 160 60 Q165 62 160 68 H40 Q35 62 30 60 Z" 
        fill="white" stroke="black" stroke-width="2" />

  <!-- Windows -->
  <path d="M50 55 Q70 45 110 45 Q150 45 150 55 L140 55 Q110 50 70 50 L50 55 Z"
        fill="url(#gradient2)" />

  <!-- Gradient for Windows -->
  <defs>
    <linearGradient id="gradient2" x1="0%" y1="0%" x2="100%" y2="100%">
      <stop offset="0%" style="stop-color:#87cefa; stop-opacity:1" />
      <stop offset="100%" style="stop-color:#1e90ff; stop-opacity:1" />
    </linearGradient>
  </defs>

  <!-- Wheels -->
  <circle cx="60" cy="70" r="8" fill="#333" />
  <circle cx="140" cy="70" r="8" fill="#333" />

  <!-- Wheel Rims -->
  <circle cx="60" cy="70" r="4" fill="#ff4500" />
  <circle cx="140" cy="70" r="4" fill="#32cd32" />
</svg>
